<?xml version="1.0" encoding="UTF-8" standalone="no"?>
<!DOCTYPE svg PUBLIC "-//W3C//DTD SVG 1.1//EN"
 "http://www.w3.org/Graphics/SVG/1.1/DTD/svg11.dtd">
<!-- Generated by graphviz version 2.43.0 (0)
 -->
<!-- Title: asm_graph Pages: 1 -->
<svg width="449pt" height="761pt"
 viewBox="0.00 0.00 449.00 761.00" xmlns="http://www.w3.org/2000/svg" xmlns:xlink="http://www.w3.org/1999/xlink">
<g id="graph0" class="graph" transform="scale(1 1) rotate(0) translate(4 757)">
<title>asm_graph</title>
<polygon fill="white" stroke="transparent" points="-4,4 -4,-757 445,-757 445,4 -4,4"/>
<!-- 0 -->
<g id="node1" class="node">
<title>0</title>
<path fill="none" stroke="black" d="M121,-93.5C121,-93.5 241,-93.5 241,-93.5 247,-93.5 253,-99.5 253,-105.5 253,-105.5 253,-160.5 253,-160.5 253,-166.5 247,-172.5 241,-172.5 241,-172.5 121,-172.5 121,-172.5 115,-172.5 109,-166.5 109,-160.5 109,-160.5 109,-105.5 109,-105.5 109,-99.5 115,-93.5 121,-93.5"/>
<polygon fill="grey" stroke="transparent" points="119,-145 119,-166 243,-166 243,-145 119,-145"/>
<text text-anchor="start" x="135.5" y="-151.8" font-family="Courier New" font-size="14.00">return_zero</text>
<text text-anchor="start" x="122" y="-129.8" font-family="Courier New" font-size="14.00" fill="#0000ff">PUSH &#160;&#160;&#160;&#160;&#160;&#160;</text>
<text text-anchor="start" x="213" y="-129.8" font-family="Courier New" font-size="14.00" fill="#838b8b">0x0</text>
<text text-anchor="start" x="122" y="-106.8" font-family="Courier New" font-size="14.00" fill="#0000ff">CALL &#160;&#160;&#160;&#160;&#160;&#160;</text>
<text text-anchor="start" x="213" y="-106.8" font-family="Courier New" font-size="14.00" fill="forestgreen">EAX</text>
</g>
<!-- 5 -->
<g id="node5" class="node">
<title>5</title>
<path fill="none" stroke="black" d="M116.5,-0.5C116.5,-0.5 245.5,-0.5 245.5,-0.5 251.5,-0.5 257.5,-6.5 257.5,-12.5 257.5,-12.5 257.5,-44.5 257.5,-44.5 257.5,-50.5 251.5,-56.5 245.5,-56.5 245.5,-56.5 116.5,-56.5 116.5,-56.5 110.5,-56.5 104.5,-50.5 104.5,-44.5 104.5,-44.5 104.5,-12.5 104.5,-12.5 104.5,-6.5 110.5,-0.5 116.5,-0.5"/>
<polygon fill="grey" stroke="transparent" points="115,-29.5 115,-50.5 248,-50.5 248,-29.5 115,-29.5"/>
<text text-anchor="start" x="140" y="-36.3" font-family="Courier New" font-size="14.00">loc_405c4d</text>
<text text-anchor="start" x="118" y="-14.3" font-family="Courier New" font-size="14.00" fill="#0000ff">RET &#160;&#160;&#160;&#160;&#160;&#160;&#160;</text>
<text text-anchor="start" x="209" y="-14.3" font-family="Courier New" font-size="14.00" fill="#838b8b">0x10</text>
</g>
<!-- 0&#45;&gt;5 -->
<g id="edge4" class="edge">
<title>0&#45;&gt;5</title>
<path fill="none" stroke="blue" d="M181,-93.25C181,-84.54 181,-75.33 181,-66.69"/>
<polygon fill="blue" stroke="blue" points="184.5,-66.51 181,-56.51 177.5,-66.51 184.5,-66.51"/>
</g>
<!-- 2 -->
<g id="node2" class="node">
<title>2</title>
<path fill="none" stroke="black" d="M58.5,-696.5C58.5,-696.5 261.5,-696.5 261.5,-696.5 267.5,-696.5 273.5,-702.5 273.5,-708.5 273.5,-708.5 273.5,-740.5 273.5,-740.5 273.5,-746.5 267.5,-752.5 261.5,-752.5 261.5,-752.5 58.5,-752.5 58.5,-752.5 52.5,-752.5 46.5,-746.5 46.5,-740.5 46.5,-740.5 46.5,-708.5 46.5,-708.5 46.5,-702.5 52.5,-696.5 58.5,-696.5"/>
<polygon fill="grey" stroke="transparent" points="57,-725.5 57,-746.5 264,-746.5 264,-725.5 57,-725.5"/>
<text text-anchor="start" x="119" y="-732.3" font-family="Courier New" font-size="14.00">loc_405c20</text>
<text text-anchor="start" x="60" y="-710.3" font-family="Courier New" font-size="14.00" fill="#0000ff">CALL &#160;&#160;&#160;&#160;&#160;&#160;</text>
<text text-anchor="start" x="151" y="-710.3" font-family="Courier New" font-size="14.00" fill="darkslateblue">flat_function</text>
</g>
<!-- 3 -->
<g id="node3" class="node">
<title>3</title>
<path fill="none" stroke="black" d="M12,-557.5C12,-557.5 308,-557.5 308,-557.5 314,-557.5 320,-563.5 320,-569.5 320,-569.5 320,-647.5 320,-647.5 320,-653.5 314,-659.5 308,-659.5 308,-659.5 12,-659.5 12,-659.5 6,-659.5 0,-653.5 0,-647.5 0,-647.5 0,-569.5 0,-569.5 0,-563.5 6,-557.5 12,-557.5"/>
<polygon fill="grey" stroke="transparent" points="10,-632.5 10,-653.5 310,-653.5 310,-632.5 10,-632.5"/>
<text text-anchor="start" x="118.5" y="-639.3" font-family="Courier New" font-size="14.00">loc_405c25</text>
<text text-anchor="start" x="13" y="-617.3" font-family="Courier New" font-size="14.00" fill="#0000ff">MOV &#160;&#160;&#160;&#160;&#160;&#160;&#160;</text>
<text text-anchor="start" x="104" y="-617.3" font-family="Courier New" font-size="14.00" fill="forestgreen">EAX</text>
<text text-anchor="start" x="129" y="-617.3" font-family="Courier New" font-size="14.00">, </text>
<text text-anchor="start" x="146" y="-617.3" font-family="Courier New" font-size="14.00" fill="#8b0a50">DWORD</text>
<text text-anchor="start" x="188" y="-617.3" font-family="Courier New" font-size="14.00"> PTR [</text>
<text text-anchor="start" x="238" y="-617.3" font-family="Courier New" font-size="14.00" fill="#838b8b">0x40DE90</text>
<text text-anchor="start" x="13" y="-594.3" font-family="Courier New" font-size="14.00" fill="#0000ff">]TEST &#160;&#160;&#160;&#160;&#160;&#160;</text>
<text text-anchor="start" x="113" y="-594.3" font-family="Courier New" font-size="14.00" fill="forestgreen">EAX</text>
<text text-anchor="start" x="138" y="-594.3" font-family="Courier New" font-size="14.00">, </text>
<text text-anchor="start" x="155" y="-594.3" font-family="Courier New" font-size="14.00" fill="forestgreen">EAX</text>
<text text-anchor="start" x="13" y="-571.3" font-family="Courier New" font-size="14.00" fill="#0000ff">JNZ &#160;&#160;&#160;&#160;&#160;&#160;&#160;</text>
<text text-anchor="start" x="104" y="-571.3" font-family="Courier New" font-size="14.00" fill="darkslateblue">return_zero</text>
</g>
<!-- 2&#45;&gt;3 -->
<g id="edge1" class="edge">
<title>2&#45;&gt;3</title>
<path fill="none" stroke="blue" d="M160,-696.48C160,-688.36 160,-679.1 160,-669.73"/>
<polygon fill="blue" stroke="blue" points="163.5,-669.55 160,-659.55 156.5,-669.55 163.5,-669.55"/>
</g>
<!-- 3&#45;&gt;0 -->
<g id="edge2" class="edge">
<title>3&#45;&gt;0</title>
<path fill="none" stroke="limegreen" d="M129.24,-557.32C123.5,-545.77 118.28,-533.26 115,-521 79.14,-386.96 50.06,-336.84 104,-209 108.43,-198.49 115.14,-188.73 122.77,-179.95"/>
<polygon fill="limegreen" stroke="limegreen" points="125.45,-182.21 129.69,-172.5 120.32,-177.45 125.45,-182.21"/>
</g>
<!-- 4 -->
<g id="node4" class="node">
<title>4</title>
<path fill="none" stroke="black" d="M136,-441.5C136,-441.5 356,-441.5 356,-441.5 362,-441.5 368,-447.5 368,-453.5 368,-453.5 368,-508.5 368,-508.5 368,-514.5 362,-520.5 356,-520.5 356,-520.5 136,-520.5 136,-520.5 130,-520.5 124,-514.5 124,-508.5 124,-508.5 124,-453.5 124,-453.5 124,-447.5 130,-441.5 136,-441.5"/>
<polygon fill="grey" stroke="transparent" points="134,-493 134,-514 358,-514 358,-493 134,-493"/>
<text text-anchor="start" x="204.5" y="-499.8" font-family="Courier New" font-size="14.00">loc_405c2e</text>
<text text-anchor="start" x="137" y="-477.8" font-family="Courier New" font-size="14.00" fill="#0000ff">MOV &#160;&#160;&#160;&#160;&#160;&#160;&#160;</text>
<text text-anchor="start" x="228" y="-477.8" font-family="Courier New" font-size="14.00" fill="forestgreen">ECX</text>
<text text-anchor="start" x="253" y="-477.8" font-family="Courier New" font-size="14.00">, </text>
<text text-anchor="start" x="270" y="-477.8" font-family="Courier New" font-size="14.00" fill="#838b8b">0xEF98C369</text>
<text text-anchor="start" x="137" y="-454.8" font-family="Courier New" font-size="14.00" fill="#0000ff">CALL &#160;&#160;&#160;&#160;&#160;&#160;</text>
<text text-anchor="start" x="228" y="-454.8" font-family="Courier New" font-size="14.00" fill="darkslateblue">loc_403e40</text>
</g>
<!-- 3&#45;&gt;4 -->
<g id="edge3" class="edge">
<title>3&#45;&gt;4</title>
<path fill="none" stroke="red" d="M194.48,-557.18C200.85,-547.88 207.48,-538.21 213.78,-529.02"/>
<polygon fill="red" stroke="red" points="216.69,-530.97 219.45,-520.74 210.91,-527.01 216.69,-530.97"/>
</g>
<!-- 7 -->
<g id="node6" class="node">
<title>7</title>
<path fill="none" stroke="black" d="M146,-302.5C146,-302.5 366,-302.5 366,-302.5 372,-302.5 378,-308.5 378,-314.5 378,-314.5 378,-392.5 378,-392.5 378,-398.5 372,-404.5 366,-404.5 366,-404.5 146,-404.5 146,-404.5 140,-404.5 134,-398.5 134,-392.5 134,-392.5 134,-314.5 134,-314.5 134,-308.5 140,-302.5 146,-302.5"/>
<polygon fill="grey" stroke="transparent" points="144,-377.5 144,-398.5 368,-398.5 368,-377.5 144,-377.5"/>
<text text-anchor="start" x="214.5" y="-384.3" font-family="Courier New" font-size="14.00">loc_405c38</text>
<text text-anchor="start" x="147" y="-362.3" font-family="Courier New" font-size="14.00" fill="#0000ff">MOV &#160;&#160;&#160;&#160;&#160;&#160;&#160;</text>
<text text-anchor="start" x="238" y="-362.3" font-family="Courier New" font-size="14.00" fill="forestgreen">EDX</text>
<text text-anchor="start" x="263" y="-362.3" font-family="Courier New" font-size="14.00">, </text>
<text text-anchor="start" x="280" y="-362.3" font-family="Courier New" font-size="14.00" fill="#838b8b">0xEB532A3F</text>
<text text-anchor="start" x="147" y="-339.3" font-family="Courier New" font-size="14.00" fill="#0000ff">MOV &#160;&#160;&#160;&#160;&#160;&#160;&#160;</text>
<text text-anchor="start" x="238" y="-339.3" font-family="Courier New" font-size="14.00" fill="forestgreen">ECX</text>
<text text-anchor="start" x="263" y="-339.3" font-family="Courier New" font-size="14.00">, </text>
<text text-anchor="start" x="280" y="-339.3" font-family="Courier New" font-size="14.00" fill="forestgreen">EAX</text>
<text text-anchor="start" x="147" y="-316.3" font-family="Courier New" font-size="14.00" fill="#0000ff">CALL &#160;&#160;&#160;&#160;&#160;&#160;</text>
<text text-anchor="start" x="238" y="-316.3" font-family="Courier New" font-size="14.00" fill="darkslateblue">loc_403da0</text>
</g>
<!-- 4&#45;&gt;7 -->
<g id="edge5" class="edge">
<title>4&#45;&gt;7</title>
<path fill="none" stroke="blue" d="M249.08,-441.32C249.75,-432.95 250.47,-423.9 251.19,-414.92"/>
<polygon fill="blue" stroke="blue" points="254.68,-415.09 251.99,-404.85 247.71,-414.54 254.68,-415.09"/>
</g>
<!-- 9 -->
<g id="node7" class="node">
<title>9</title>
<path fill="none" stroke="black" d="M125,-209.5C125,-209.5 429,-209.5 429,-209.5 435,-209.5 441,-215.5 441,-221.5 441,-221.5 441,-253.5 441,-253.5 441,-259.5 435,-265.5 429,-265.5 429,-265.5 125,-265.5 125,-265.5 119,-265.5 113,-259.5 113,-253.5 113,-253.5 113,-221.5 113,-221.5 113,-215.5 119,-209.5 125,-209.5"/>
<polygon fill="grey" stroke="transparent" points="123,-238.5 123,-259.5 431,-259.5 431,-238.5 123,-238.5"/>
<text text-anchor="start" x="235.5" y="-245.3" font-family="Courier New" font-size="14.00">loc_405c44</text>
<text text-anchor="start" x="126" y="-223.3" font-family="Courier New" font-size="14.00" fill="#0000ff">MOV &#160;&#160;&#160;&#160;&#160;&#160;&#160;</text>
<text text-anchor="start" x="217" y="-223.3" font-family="Courier New" font-size="14.00" fill="#8b0a50">DWORD</text>
<text text-anchor="start" x="259" y="-223.3" font-family="Courier New" font-size="14.00"> PTR [</text>
<text text-anchor="start" x="309" y="-223.3" font-family="Courier New" font-size="14.00" fill="#838b8b">0x40DE90</text>
<text text-anchor="start" x="376" y="-223.3" font-family="Courier New" font-size="14.00">], </text>
<text text-anchor="start" x="401" y="-223.3" font-family="Courier New" font-size="14.00" fill="forestgreen">EAX</text>
</g>
<!-- 7&#45;&gt;9 -->
<g id="edge6" class="edge">
<title>7&#45;&gt;9</title>
<path fill="none" stroke="blue" d="M265.21,-302.5C266.87,-293.48 268.58,-284.23 270.16,-275.66"/>
<polygon fill="blue" stroke="blue" points="273.64,-276.07 272.01,-265.6 266.75,-274.8 273.64,-276.07"/>
</g>
<!-- 9&#45;&gt;0 -->
<g id="edge7" class="edge">
<title>9&#45;&gt;0</title>
<path fill="none" stroke="blue" d="M251.53,-209.3C243.12,-200.32 233.51,-190.07 224.16,-180.08"/>
<polygon fill="blue" stroke="blue" points="226.46,-177.42 217.07,-172.52 221.36,-182.21 226.46,-177.42"/>
</g>
</g>
</svg>
